<mxfile host="app.diagrams.net" modified="2024-04-01T02:37:42.261Z" agent="Mozilla/5.0 (Windows NT 10.0; Win64; x64) AppleWebKit/537.36 (KHTML, like Gecko) Chrome/123.0.0.0 Safari/537.36" etag="RVU3oz-Y2nbQXMLIT0nq" version="24.2.1" type="device">
  <diagram name="페이지-1" id="m6jPCWjJBY-letjY6s1f">
    <mxGraphModel dx="726" dy="1197" grid="1" gridSize="10" guides="1" tooltips="1" connect="1" arrows="1" fold="1" page="1" pageScale="1" pageWidth="827" pageHeight="1169" math="0" shadow="0">
      <root>
        <mxCell id="0" />
        <mxCell id="1" parent="0" />
        <mxCell id="x2JGlIepr_5e9PmA42Vt-1" value="&lt;span style=&quot;font-size: 25px;&quot;&gt;리스트 페이지 시작&lt;/span&gt;" style="strokeWidth=1;html=1;shape=mxgraph.flowchart.terminator;whiteSpace=wrap;" vertex="1" parent="1">
          <mxGeometry x="200" y="29" width="226" height="100" as="geometry" />
        </mxCell>
        <mxCell id="x2JGlIepr_5e9PmA42Vt-2" value="&lt;font style=&quot;font-size: 25px;&quot;&gt;DB 접속&lt;/font&gt;" style="rounded=0;whiteSpace=wrap;html=1;" vertex="1" parent="1">
          <mxGeometry x="213" y="169" width="200" height="80" as="geometry" />
        </mxCell>
        <mxCell id="x2JGlIepr_5e9PmA42Vt-3" value="" style="endArrow=classic;html=1;rounded=0;" edge="1" parent="1">
          <mxGeometry width="50" height="50" relative="1" as="geometry">
            <mxPoint x="312.71999999999997" y="129" as="sourcePoint" />
            <mxPoint x="312.96" y="169" as="targetPoint" />
          </mxGeometry>
        </mxCell>
        <mxCell id="x2JGlIepr_5e9PmA42Vt-6" value="&lt;font style=&quot;font-size: 18px;&quot;&gt;DB&amp;nbsp; 접속&amp;nbsp;&lt;/font&gt;&lt;div style=&quot;font-size: 18px;&quot;&gt;&lt;font style=&quot;font-size: 18px;&quot;&gt;예외 발생&lt;/font&gt;&lt;/div&gt;" style="rhombus;whiteSpace=wrap;html=1;" vertex="1" parent="1">
          <mxGeometry x="250" y="260" width="126" height="130" as="geometry" />
        </mxCell>
        <mxCell id="x2JGlIepr_5e9PmA42Vt-7" value="" style="endArrow=classic;html=1;rounded=0;exitX=0.5;exitY=1;exitDx=0;exitDy=0;entryX=0.5;entryY=0;entryDx=0;entryDy=0;" edge="1" parent="1" source="x2JGlIepr_5e9PmA42Vt-2" target="x2JGlIepr_5e9PmA42Vt-6">
          <mxGeometry width="50" height="50" relative="1" as="geometry">
            <mxPoint x="319" y="309" as="sourcePoint" />
            <mxPoint x="369" y="259" as="targetPoint" />
          </mxGeometry>
        </mxCell>
        <mxCell id="x2JGlIepr_5e9PmA42Vt-10" value="&lt;font style=&quot;font-size: 16px;&quot;&gt;예외 메세지 출력&lt;/font&gt;" style="strokeWidth=1;html=1;shape=mxgraph.flowchart.document2;whiteSpace=wrap;size=0.25;" vertex="1" parent="1">
          <mxGeometry x="610" y="1110" width="150" height="90" as="geometry" />
        </mxCell>
        <mxCell id="x2JGlIepr_5e9PmA42Vt-13" value="&lt;span style=&quot;font-size: 25px;&quot;&gt;리스트 페이지 종료&lt;/span&gt;" style="strokeWidth=1;html=1;shape=mxgraph.flowchart.terminator;whiteSpace=wrap;" vertex="1" parent="1">
          <mxGeometry x="200" y="1200" width="226" height="91" as="geometry" />
        </mxCell>
        <mxCell id="x2JGlIepr_5e9PmA42Vt-14" value="" style="endArrow=classic;html=1;rounded=0;exitX=0.5;exitY=0.88;exitDx=0;exitDy=0;exitPerimeter=0;entryX=1;entryY=0.5;entryDx=0;entryDy=0;entryPerimeter=0;" edge="1" parent="1" source="x2JGlIepr_5e9PmA42Vt-10" target="x2JGlIepr_5e9PmA42Vt-13">
          <mxGeometry width="50" height="50" relative="1" as="geometry">
            <mxPoint x="500" y="839" as="sourcePoint" />
            <mxPoint x="550" y="789" as="targetPoint" />
            <Array as="points">
              <mxPoint x="685" y="1246" />
            </Array>
          </mxGeometry>
        </mxCell>
        <mxCell id="x2JGlIepr_5e9PmA42Vt-15" value="&lt;font style=&quot;font-size: 18px;&quot;&gt;페이지 정보 획득&lt;/font&gt;" style="shape=parallelogram;perimeter=parallelogramPerimeter;whiteSpace=wrap;html=1;fixedSize=1;" vertex="1" parent="1">
          <mxGeometry x="100" y="530" width="160" height="60" as="geometry" />
        </mxCell>
        <mxCell id="x2JGlIepr_5e9PmA42Vt-18" value="&lt;font style=&quot;font-size: 15px;&quot;&gt;page 파라미터&lt;/font&gt;&lt;div style=&quot;font-size: 15px;&quot;&gt;&lt;font style=&quot;font-size: 15px;&quot;&gt;존재&lt;/font&gt;&lt;/div&gt;" style="rhombus;whiteSpace=wrap;html=1;" vertex="1" parent="1">
          <mxGeometry x="213" y="410" width="200" height="100" as="geometry" />
        </mxCell>
        <mxCell id="x2JGlIepr_5e9PmA42Vt-22" value="" style="endArrow=classic;html=1;rounded=0;exitX=0;exitY=0.5;exitDx=0;exitDy=0;" edge="1" parent="1" source="x2JGlIepr_5e9PmA42Vt-18">
          <mxGeometry relative="1" as="geometry">
            <mxPoint x="270" y="649" as="sourcePoint" />
            <mxPoint x="170" y="530" as="targetPoint" />
            <Array as="points">
              <mxPoint x="170" y="460" />
              <mxPoint x="170" y="510" />
            </Array>
          </mxGeometry>
        </mxCell>
        <mxCell id="x2JGlIepr_5e9PmA42Vt-23" value="YES" style="edgeLabel;resizable=0;html=1;;align=center;verticalAlign=middle;" connectable="0" vertex="1" parent="x2JGlIepr_5e9PmA42Vt-22">
          <mxGeometry relative="1" as="geometry">
            <mxPoint y="7" as="offset" />
          </mxGeometry>
        </mxCell>
        <mxCell id="x2JGlIepr_5e9PmA42Vt-24" value="&lt;font style=&quot;font-size: 18px;&quot;&gt;1 획득&lt;/font&gt;" style="shape=parallelogram;perimeter=parallelogramPerimeter;whiteSpace=wrap;html=1;fixedSize=1;" vertex="1" parent="1">
          <mxGeometry x="340" y="530" width="160" height="60" as="geometry" />
        </mxCell>
        <mxCell id="x2JGlIepr_5e9PmA42Vt-25" value="" style="endArrow=classic;html=1;rounded=0;exitX=1;exitY=0.5;exitDx=0;exitDy=0;entryX=0.683;entryY=0.044;entryDx=0;entryDy=0;entryPerimeter=0;" edge="1" parent="1" source="x2JGlIepr_5e9PmA42Vt-18" target="x2JGlIepr_5e9PmA42Vt-24">
          <mxGeometry relative="1" as="geometry">
            <mxPoint x="270" y="649" as="sourcePoint" />
            <mxPoint x="370" y="649" as="targetPoint" />
            <Array as="points">
              <mxPoint x="450" y="460" />
              <mxPoint x="450" y="519" />
            </Array>
          </mxGeometry>
        </mxCell>
        <mxCell id="x2JGlIepr_5e9PmA42Vt-26" value="NO" style="edgeLabel;resizable=0;html=1;;align=center;verticalAlign=middle;" connectable="0" vertex="1" parent="x2JGlIepr_5e9PmA42Vt-25">
          <mxGeometry relative="1" as="geometry" />
        </mxCell>
        <mxCell id="x2JGlIepr_5e9PmA42Vt-27" value="" style="endArrow=classic;html=1;rounded=0;exitX=0.5;exitY=1;exitDx=0;exitDy=0;entryX=0.5;entryY=0;entryDx=0;entryDy=0;" edge="1" parent="1" source="x2JGlIepr_5e9PmA42Vt-6" target="x2JGlIepr_5e9PmA42Vt-18">
          <mxGeometry relative="1" as="geometry">
            <mxPoint x="440" y="609" as="sourcePoint" />
            <mxPoint x="540" y="609" as="targetPoint" />
          </mxGeometry>
        </mxCell>
        <mxCell id="x2JGlIepr_5e9PmA42Vt-28" value="NO" style="edgeLabel;resizable=0;html=1;;align=center;verticalAlign=middle;" connectable="0" vertex="1" parent="x2JGlIepr_5e9PmA42Vt-27">
          <mxGeometry relative="1" as="geometry" />
        </mxCell>
        <mxCell id="x2JGlIepr_5e9PmA42Vt-29" value="" style="endArrow=classic;html=1;rounded=0;exitX=1;exitY=0.5;exitDx=0;exitDy=0;entryX=0.5;entryY=0;entryDx=0;entryDy=0;entryPerimeter=0;" edge="1" parent="1" source="x2JGlIepr_5e9PmA42Vt-6" target="x2JGlIepr_5e9PmA42Vt-10">
          <mxGeometry relative="1" as="geometry">
            <mxPoint x="380" y="354" as="sourcePoint" />
            <mxPoint x="630" y="399" as="targetPoint" />
            <Array as="points">
              <mxPoint x="685" y="325" />
            </Array>
          </mxGeometry>
        </mxCell>
        <mxCell id="x2JGlIepr_5e9PmA42Vt-30" value="YES" style="edgeLabel;resizable=0;html=1;;align=center;verticalAlign=middle;" connectable="0" vertex="1" parent="x2JGlIepr_5e9PmA42Vt-29">
          <mxGeometry relative="1" as="geometry" />
        </mxCell>
        <mxCell id="x2JGlIepr_5e9PmA42Vt-31" value="&lt;font style=&quot;font-size: 15px;&quot;&gt;DB에서 게시글 수&amp;nbsp;&lt;/font&gt;&lt;span style=&quot;font-size: 15px; background-color: initial;&quot;&gt;획득&lt;/span&gt;" style="rounded=0;whiteSpace=wrap;html=1;" vertex="1" parent="1">
          <mxGeometry x="234.5" y="650" width="180" height="60" as="geometry" />
        </mxCell>
        <mxCell id="x2JGlIepr_5e9PmA42Vt-33" value="" style="endArrow=classic;html=1;rounded=0;exitX=0.5;exitY=1;exitDx=0;exitDy=0;" edge="1" parent="1" source="x2JGlIepr_5e9PmA42Vt-15">
          <mxGeometry width="50" height="50" relative="1" as="geometry">
            <mxPoint x="220" y="710" as="sourcePoint" />
            <mxPoint x="320" y="650" as="targetPoint" />
            <Array as="points">
              <mxPoint x="180" y="630" />
              <mxPoint x="320" y="630" />
            </Array>
          </mxGeometry>
        </mxCell>
        <mxCell id="x2JGlIepr_5e9PmA42Vt-36" value="&lt;span style=&quot;font-size: 15px;&quot;&gt;페이지 관련 설정 세팅&lt;/span&gt;" style="rounded=0;whiteSpace=wrap;html=1;" vertex="1" parent="1">
          <mxGeometry x="233" y="829" width="180" height="60" as="geometry" />
        </mxCell>
        <mxCell id="x2JGlIepr_5e9PmA42Vt-38" value="&lt;span style=&quot;font-size: 15px;&quot;&gt;DB에서 게시글 조회&lt;/span&gt;" style="rounded=0;whiteSpace=wrap;html=1;" vertex="1" parent="1">
          <mxGeometry x="233" y="909" width="180" height="60" as="geometry" />
        </mxCell>
        <mxCell id="x2JGlIepr_5e9PmA42Vt-39" value="" style="endArrow=classic;html=1;rounded=0;exitX=0.484;exitY=1.002;exitDx=0;exitDy=0;exitPerimeter=0;" edge="1" parent="1" source="x2JGlIepr_5e9PmA42Vt-36">
          <mxGeometry width="50" height="50" relative="1" as="geometry">
            <mxPoint x="310" y="1029" as="sourcePoint" />
            <mxPoint x="320" y="909" as="targetPoint" />
          </mxGeometry>
        </mxCell>
        <mxCell id="x2JGlIepr_5e9PmA42Vt-40" value="화면에 출력" style="strokeWidth=1;html=1;shape=mxgraph.flowchart.document2;whiteSpace=wrap;size=0.25;" vertex="1" parent="1">
          <mxGeometry x="231.5" y="1100" width="183" height="60" as="geometry" />
        </mxCell>
        <mxCell id="x2JGlIepr_5e9PmA42Vt-42" value="" style="endArrow=classic;html=1;rounded=0;entryX=0.529;entryY=-0.003;entryDx=0;entryDy=0;entryPerimeter=0;exitX=0.482;exitY=0.889;exitDx=0;exitDy=0;exitPerimeter=0;" edge="1" parent="1" source="x2JGlIepr_5e9PmA42Vt-40" target="x2JGlIepr_5e9PmA42Vt-13">
          <mxGeometry width="50" height="50" relative="1" as="geometry">
            <mxPoint x="230" y="999" as="sourcePoint" />
            <mxPoint x="280" y="949" as="targetPoint" />
          </mxGeometry>
        </mxCell>
        <mxCell id="x2JGlIepr_5e9PmA42Vt-44" value="게시글 수 획득&lt;div&gt;예외 발생&lt;/div&gt;" style="rhombus;whiteSpace=wrap;html=1;" vertex="1" parent="1">
          <mxGeometry x="243" y="720" width="160" height="80" as="geometry" />
        </mxCell>
        <mxCell id="x2JGlIepr_5e9PmA42Vt-45" value="" style="endArrow=classic;html=1;rounded=0;exitX=0.5;exitY=1;exitDx=0;exitDy=0;" edge="1" parent="1" source="x2JGlIepr_5e9PmA42Vt-31" target="x2JGlIepr_5e9PmA42Vt-44">
          <mxGeometry width="50" height="50" relative="1" as="geometry">
            <mxPoint x="340" y="940" as="sourcePoint" />
            <mxPoint x="390" y="890" as="targetPoint" />
          </mxGeometry>
        </mxCell>
        <mxCell id="x2JGlIepr_5e9PmA42Vt-47" value="" style="endArrow=classic;html=1;rounded=0;exitX=1;exitY=0.5;exitDx=0;exitDy=0;entryX=0.5;entryY=0;entryDx=0;entryDy=0;entryPerimeter=0;" edge="1" parent="1" source="x2JGlIepr_5e9PmA42Vt-44" target="x2JGlIepr_5e9PmA42Vt-10">
          <mxGeometry relative="1" as="geometry">
            <mxPoint x="360" y="810" as="sourcePoint" />
            <mxPoint x="460" y="810" as="targetPoint" />
            <Array as="points">
              <mxPoint x="685" y="760" />
            </Array>
          </mxGeometry>
        </mxCell>
        <mxCell id="x2JGlIepr_5e9PmA42Vt-48" value="YES" style="edgeLabel;resizable=0;html=1;;align=center;verticalAlign=middle;" connectable="0" vertex="1" parent="x2JGlIepr_5e9PmA42Vt-47">
          <mxGeometry relative="1" as="geometry">
            <mxPoint x="-205" y="-34" as="offset" />
          </mxGeometry>
        </mxCell>
        <mxCell id="x2JGlIepr_5e9PmA42Vt-49" value="" style="endArrow=classic;html=1;rounded=0;exitX=0.5;exitY=1;exitDx=0;exitDy=0;entryX=0.5;entryY=0;entryDx=0;entryDy=0;" edge="1" parent="1" source="x2JGlIepr_5e9PmA42Vt-44" target="x2JGlIepr_5e9PmA42Vt-36">
          <mxGeometry relative="1" as="geometry">
            <mxPoint x="360" y="810" as="sourcePoint" />
            <mxPoint x="460" y="810" as="targetPoint" />
          </mxGeometry>
        </mxCell>
        <mxCell id="x2JGlIepr_5e9PmA42Vt-50" value="NO" style="edgeLabel;resizable=0;html=1;;align=center;verticalAlign=middle;" connectable="0" vertex="1" parent="x2JGlIepr_5e9PmA42Vt-49">
          <mxGeometry relative="1" as="geometry">
            <mxPoint y="-5" as="offset" />
          </mxGeometry>
        </mxCell>
        <mxCell id="x2JGlIepr_5e9PmA42Vt-51" value="게시글 수 획득&lt;div&gt;예외 발생&lt;/div&gt;" style="rhombus;whiteSpace=wrap;html=1;" vertex="1" parent="1">
          <mxGeometry x="243" y="990" width="160" height="80" as="geometry" />
        </mxCell>
        <mxCell id="x2JGlIepr_5e9PmA42Vt-52" value="" style="endArrow=classic;html=1;rounded=0;exitX=0.5;exitY=1;exitDx=0;exitDy=0;" edge="1" parent="1" source="x2JGlIepr_5e9PmA42Vt-38" target="x2JGlIepr_5e9PmA42Vt-51">
          <mxGeometry width="50" height="50" relative="1" as="geometry">
            <mxPoint x="370" y="950" as="sourcePoint" />
            <mxPoint x="420" y="900" as="targetPoint" />
          </mxGeometry>
        </mxCell>
        <mxCell id="x2JGlIepr_5e9PmA42Vt-53" value="" style="endArrow=classic;html=1;rounded=0;exitX=1;exitY=0.5;exitDx=0;exitDy=0;entryX=0.5;entryY=0;entryDx=0;entryDy=0;entryPerimeter=0;" edge="1" parent="1" source="x2JGlIepr_5e9PmA42Vt-51" target="x2JGlIepr_5e9PmA42Vt-10">
          <mxGeometry relative="1" as="geometry">
            <mxPoint x="340" y="1070" as="sourcePoint" />
            <mxPoint x="440" y="1070" as="targetPoint" />
            <Array as="points">
              <mxPoint x="685" y="1030" />
            </Array>
          </mxGeometry>
        </mxCell>
        <mxCell id="x2JGlIepr_5e9PmA42Vt-54" value="YES" style="edgeLabel;resizable=0;html=1;;align=center;verticalAlign=middle;" connectable="0" vertex="1" parent="x2JGlIepr_5e9PmA42Vt-53">
          <mxGeometry relative="1" as="geometry">
            <mxPoint x="-104" as="offset" />
          </mxGeometry>
        </mxCell>
        <mxCell id="x2JGlIepr_5e9PmA42Vt-55" value="" style="endArrow=classic;html=1;rounded=0;exitX=0.5;exitY=1;exitDx=0;exitDy=0;" edge="1" parent="1" source="x2JGlIepr_5e9PmA42Vt-51" target="x2JGlIepr_5e9PmA42Vt-40">
          <mxGeometry relative="1" as="geometry">
            <mxPoint x="330" y="1120" as="sourcePoint" />
            <mxPoint x="430" y="1120" as="targetPoint" />
          </mxGeometry>
        </mxCell>
        <mxCell id="x2JGlIepr_5e9PmA42Vt-56" value="NO" style="edgeLabel;resizable=0;html=1;;align=center;verticalAlign=middle;" connectable="0" vertex="1" parent="x2JGlIepr_5e9PmA42Vt-55">
          <mxGeometry relative="1" as="geometry">
            <mxPoint y="-5" as="offset" />
          </mxGeometry>
        </mxCell>
      </root>
    </mxGraphModel>
  </diagram>
</mxfile>
